# xmcd
#
# Track frame offsets:
#	150
#	12377
#	26142
#	42377
#	55620
#	69529
#	83429
#	95225
#	109058
#	120888
#	130872
#	140803
#	153690
#	168402
#	180278
#	192205
#	203125
#	214695
#
# Disc length: 3030 seconds
#
# Revision: 2
# Processed by: cddbd v1.5.2PL0 Copyright (c) Steve Scherf et al.
# Submitted via: audiograbber 1.83.01
#
DISCID=f70bd412
DTITLE=Various Artist - Country Heroes
DYEAR=2000
DGENRE=Hardcore
TTITLE0=Jonny Cash - I Walk The Line
TTITLE1=Glenn Campbell - Rhinestone Cowboy
TTITLE2=Don Gibson - Green Green Gras Of Home
TTITLE3=Lynn Andreson - Rose Garden
TTITLE4=Willie Nelson - Home Is Where You Happy
TTITLE5=Billie Jo Spears - I Will Survive
TTITLE6=Tammy Wynette - Stand By Your Man
TTITLE7=Kenny Rogers  - Love Me Tender
TTITLE8=Ray Griff - Ring My Bell
TTITLE9=Carl Perkins - Movie Magg
TTITLE10=Boxcar Willie - King Of The Road
TTITLE11=Jim Reeves  - Four Walls
TTITLE12=John Denver - Take Me Home Country Roads
TTITLE13=Dolly Parton - Making Believe
TTITLE14=Hank Williams - Take These Chains From My Heart
TTITLE15=Guy Mitchell - Singing The Blues
TTITLE16=Jeah Shepherd - A Dear Letter
TTITLE17=Jonny Cash - Ring Of Fire
EXTD=YEAR: 2000
EXTT0=
EXTT1=
EXTT2=
EXTT3=
EXTT4=
EXTT5=
EXTT6=
EXTT7=
EXTT8=
EXTT9=
EXTT10=
EXTT11=
EXTT12=
EXTT13=
EXTT14=
EXTT15=
EXTT16=
EXTT17=
PLAYORDER=
